<svg xmlns="http://www.w3.org/2000/svg" height="256" width="256" viewBox="0 0 29 29" role="img"><path fill="#FFFFFF" d="M0,0 h29v29H0z" shape-rendering="crispEdges"/><path fill="#000000" d="M4 4h7v1H4zM12 4h2v1H12zM15 4h1v1H15zM18,4 h7v1H18zM4 5h1v1H4zM10 5h1v1H10zM12 5h1v1H12zM15 5h2v1H15zM18 5h1v1H18zM24,5 h1v1H24zM4 6h1v1H4zM6 6h3v1H6zM10 6h1v1H10zM12 6h4v1H12zM18 6h1v1H18zM20 6h3v1H20zM24,6 h1v1H24zM4 7h1v1H4zM6 7h3v1H6zM10 7h1v1H10zM14 7h3v1H14zM18 7h1v1H18zM20 7h3v1H20zM24,7 h1v1H24zM4 8h1v1H4zM6 8h3v1H6zM10 8h1v1H10zM13 8h2v1H13zM18 8h1v1H18zM20 8h3v1H20zM24,8 h1v1H24zM4 9h1v1H4zM10 9h1v1H10zM12 9h5v1H12zM18 9h1v1H18zM24,9 h1v1H24zM4 10h7v1H4zM12 10h1v1H12zM14 10h1v1H14zM16 10h1v1H16zM18,10 h7v1H18zM12 11h2v1H12zM15 11h2v1H15zM6 12h3v1H6zM10 12h1v1H10zM12 12h3v1H12zM16 12h4v1H16zM22,12 h3v1H22zM7 13h2v1H7zM13 13h1v1H13zM15 13h3v1H15zM22 13h1v1H22zM24,13 h1v1H24zM4 14h1v1H4zM6 14h3v1H6zM10 14h3v1H10zM19 14h1v1H19zM21 14h1v1H21zM23 14h1v1H23zM5 15h1v1H5zM7 15h1v1H7zM11 15h1v1H11zM15 15h2v1H15zM21,15 h4v1H21zM4 16h7v1H4zM12 16h4v1H12zM19 16h1v1H19zM12 17h2v1H12zM15 17h2v1H15zM19 17h1v1H19zM22 17h2v1H22zM4 18h7v1H4zM13 18h2v1H13zM18 18h1v1H18zM20 18h4v1H20zM4 19h1v1H4zM10 19h1v1H10zM13 19h1v1H13zM16 19h1v1H16zM19 19h5v1H19zM4 20h1v1H4zM6 20h3v1H6zM10 20h1v1H10zM12 20h1v1H12zM15 20h1v1H15zM17 20h1v1H17zM20 20h1v1H20zM23 20h1v1H23zM4 21h1v1H4zM6 21h3v1H6zM10 21h1v1H10zM12 21h1v1H12zM15 21h1v1H15zM19 21h1v1H19zM21 21h1v1H21zM4 22h1v1H4zM6 22h3v1H6zM10 22h1v1H10zM12 22h1v1H12zM14 22h2v1H14zM17 22h3v1H17zM4 23h1v1H4zM10 23h1v1H10zM14 23h4v1H14zM22 23h1v1H22zM4 24h7v1H4zM13 24h2v1H13zM16 24h1v1H16zM18 24h2v1H18zM23 24h1v1H23z" shape-rendering="crispEdges"/></svg>